<svg width="16" height="16" xmlns="http://www.w3.org/2000/svg" data-name="Слой 1">

 <title/>
 <g>
  <title>Layer 1</title>
  <rect stroke="null" rx="3" stroke-dasharray="5,5" id="svg_7" height="14" width="14" y="1" x="1" stroke-width="0" fill="#FFB27C"/>
  <g stroke="null" id="svg_3">
   <path stroke="null" id="svg_1" fill="#9e9e9e" d="m5.66084,8.54855a2.85301,2.93024 0 0 0 0.63558,-0.0728l0.69583,0.654a3.65693,3.75592 0 0 0 0.9575,-0.56845l-0.20379,-0.94702a2.84296,2.91993 0 0 0 0.63676,-1.13024l0.89902,-0.29181a3.6965,3.79657 0 0 0 0,-1.13509l-0.89902,-0.29181a2.84296,2.91993 0 0 0 -0.63676,-1.13084l0.20379,-0.94581a3.65693,3.75592 0 0 0 -0.9575,-0.56845l-0.69583,0.65278a2.83529,2.91204 0 0 0 -1.27115,0l-0.69583,-0.65278a3.65693,3.75592 0 0 0 -0.9575,0.56845l0.20379,0.94581a2.84296,2.91993 0 0 0 -0.63676,1.13024l-0.89902,0.29181a3.69591,3.79596 0 0 0 0,1.13509l0.89902,0.29181a2.84296,2.91993 0 0 0 0.63676,1.13084l-0.20379,0.94581a3.65693,3.75592 0 0 0 0.9575,0.56845l0.69583,-0.65278a2.85301,2.93024 0 0 0 0.63558,0.0728zm-1.29951,-2.92417a1.29951,1.33468 0 1 1 1.29951,1.33468a1.29951,1.33468 0 0 1 -1.29951,-1.33468z" class="cls-1"/>
   <path stroke="null" stroke-width="0" id="svg_2" fill="#404040" d="m6.99224,9.24987a0.11814,0.12133 0 0 1 -0.07974,-0.03155l-0.64975,-0.61153a2.96524,3.04551 0 0 1 -1.20145,0l-0.64975,0.61153a0.11814,0.12133 0 0 1 -0.12286,0.02366a3.77034,3.87241 0 0 1 -0.99058,-0.58787a0.11814,0.12133 0 0 1 -0.04135,-0.12133l0.1902,-0.88393a2.98178,3.06249 0 0 1 -0.60191,-1.06835l-0.84054,-0.273a0.11814,0.12133 0 0 1 -0.08092,-0.09707a3.81405,3.9173 0 0 1 0,-1.17149a0.11814,0.12133 0 0 1 0.08092,-0.09767l0.84054,-0.273a2.98296,3.06371 0 0 1 0.60191,-1.06896l-0.1902,-0.88696a0.11814,0.12133 0 0 1 0.04135,-0.12133a3.77034,3.87241 0 0 1 0.98822,-0.58362a0.11814,0.12133 0 0 1 0.12286,0.02366l0.64975,0.61153a2.96524,3.04551 0 0 1 1.20145,0l0.64975,-0.61153a0.11814,0.12133 0 0 1 0.12286,-0.02366a3.77034,3.87241 0 0 1 0.99058,0.58726a0.11814,0.12133 0 0 1 0.04135,0.12133l-0.1902,0.88393a2.98178,3.06249 0 0 1 0.60191,1.06896l0.84054,0.273a0.11814,0.12133 0 0 1 0.08151,0.09767a3.81464,3.91791 0 0 1 0,1.17149a0.11814,0.12133 0 0 1 -0.08092,0.09767l-0.84054,0.273a2.98237,3.0631 0 0 1 -0.60191,1.06896l0.18961,0.88575a0.11814,0.12133 0 0 1 -0.04135,0.12133a3.77034,3.87241 0 0 1 -0.98822,0.58665a0.11814,0.12133 0 0 1 -0.04312,0.00546zm-3.48858,-0.73832a3.53407,3.62974 0 0 0 0.79861,0.47563l0.64089,-0.60243a0.11814,0.12133 0 0 1 0.10573,-0.02851a2.73251,2.80648 0 0 0 1.21858,0a0.11814,0.12133 0 0 1 0.10632,0.02851l0.64562,0.60243a3.53407,3.62974 0 0 0 0.80097,-0.47563l-0.18961,-0.87119a0.11814,0.12133 0 0 1 0.02894,-0.10859a2.74078,2.81497 0 0 0 0.61018,-1.08352a0.11814,0.12133 0 0 1 0.07738,-0.08008l0.82696,-0.26876a3.57719,3.67402 0 0 0 0,-0.95005l-0.82696,-0.26876a0.11814,0.12133 0 0 1 -0.07738,-0.08008a2.74078,2.81497 0 0 0 -0.61018,-1.08352a0.11814,0.12133 0 0 1 -0.02894,-0.10859l0.18725,-0.87119a3.53407,3.62974 0 0 0 -0.79861,-0.47563l-0.64326,0.60243a0.11814,0.12133 0 0 1 -0.10632,0.02851a2.73251,2.80648 0 0 0 -1.21858,0a0.11814,0.12133 0 0 1 -0.10573,-0.02851l-0.64326,-0.60243a3.53407,3.62974 0 0 0 -0.80097,0.47563l0.18725,0.87119a0.11814,0.12133 0 0 1 -0.02894,0.10859a2.74137,2.81558 0 0 0 -0.60722,1.08352a0.11814,0.12133 0 0 1 -0.07738,0.08008l-0.82696,0.26876a3.57719,3.67402 0 0 0 0,0.95005l0.82696,0.26876a0.11814,0.12133 0 0 1 0.07738,0.08008a2.74196,2.81618 0 0 0 0.60959,1.08352a0.11814,0.12133 0 0 1 0.02894,0.10859l-0.18725,0.87119zm2.15718,-1.43115a1.41764,1.45602 0 1 1 1.41764,-1.45602a1.41764,1.45602 0 0 1 -1.41764,1.45602zm0,-2.66937a1.18137,1.21335 0 1 0 1.18137,1.21335a1.18137,1.21335 0 0 0 -1.18137,-1.21335z" class="cls-2"/>
  </g>
  <g stroke="null" id="svg_6">
   <path stroke="null" id="svg_4" fill="#9e9e9e" d="m10.61799,13.19604a2.87072,2.89229 0 0 0 0.63952,-0.07186l0.70015,0.64552a3.67963,3.70729 0 0 0 0.96344,-0.5611l-0.20505,-0.93475a2.86061,2.88211 0 0 0 0.64072,-1.1156l0.9046,-0.28803a3.71945,3.74741 0 0 0 0,-1.12039l-0.9046,-0.28803a2.86061,2.88211 0 0 0 -0.64072,-1.1162l0.20505,-0.93355a3.67963,3.70729 0 0 0 -0.96344,-0.5611l-0.70015,0.64433a2.85289,2.87433 0 0 0 -1.27904,0l-0.70014,-0.64433a3.67963,3.70729 0 0 0 -0.96344,0.5611l0.20505,0.93355a2.86061,2.88211 0 0 0 -0.64072,1.1156l-0.9046,0.28803a3.71886,3.74681 0 0 0 0,1.12039l0.9046,0.28803a2.86061,2.88211 0 0 0 0.64072,1.1162l-0.20505,0.93355a3.67963,3.70729 0 0 0 0.96344,0.5611l0.70014,-0.64433a2.87072,2.89229 0 0 0 0.63953,0.07186zm-1.30757,-2.88631a1.30757,1.3174 0 1 1 1.30757,1.31741a1.30757,1.3174 0 0 1 -1.30757,-1.31741z" class="cls-1"/>
   <path stroke="null" stroke-width="0" id="svg_5" fill="#404040" d="m11.95767,13.88827a0.11887,0.11977 0 0 1 -0.08024,-0.03114l-0.65379,-0.60361a2.98365,3.00607 0 0 1 -1.20891,0l-0.65379,0.60361a0.11887,0.11977 0 0 1 -0.12363,0.02335a3.79375,3.82227 0 0 1 -0.99673,-0.58025a0.11887,0.11977 0 0 1 -0.04161,-0.11976l0.19139,-0.87249a3.00029,3.02284 0 0 1 -0.60564,-1.05452l-0.84577,-0.26947a0.11887,0.11977 0 0 1 -0.08142,-0.09581a3.83773,3.86657 0 0 1 0,-1.15632a0.11887,0.11977 0 0 1 0.08142,-0.09641l0.84577,-0.26947a3.00148,3.02403 0 0 1 0.60564,-1.05512l-0.19139,-0.87547a0.11887,0.11977 0 0 1 0.04161,-0.11976a3.79375,3.82227 0 0 1 0.99435,-0.57606a0.11887,0.11977 0 0 1 0.12363,0.02335l0.65379,0.60361a2.98365,3.00607 0 0 1 1.20891,0l0.65379,-0.60361a0.11887,0.11977 0 0 1 0.12363,-0.02335a3.79375,3.82227 0 0 1 0.99673,0.57966a0.11887,0.11977 0 0 1 0.0416,0.11976l-0.19138,0.87249a3.00029,3.02284 0 0 1 0.60564,1.05511l0.84576,0.26947a0.11887,0.11977 0 0 1 0.08203,0.09641a3.83832,3.86717 0 0 1 0,1.15632a0.11887,0.11977 0 0 1 -0.08143,0.09641l-0.84576,0.26947a3.00089,3.02344 0 0 1 -0.60564,1.05512l0.19078,0.87428a0.11887,0.11977 0 0 1 -0.0416,0.11976a3.79375,3.82227 0 0 1 -0.99436,0.57906a0.11887,0.11977 0 0 1 -0.04338,0.00539zm-3.51025,-0.72876a3.55601,3.58273 0 0 0 0.80357,0.46947l0.64487,-0.59464a0.11887,0.11977 0 0 1 0.10639,-0.02813a2.74948,2.77014 0 0 0 1.22614,0a0.11887,0.11977 0 0 1 0.10699,0.02813l0.64962,0.59464a3.55601,3.58273 0 0 0 0.80595,-0.46947l-0.19079,-0.85991a0.11887,0.11977 0 0 1 0.02912,-0.10719a2.7578,2.77852 0 0 0 0.61396,-1.06949a0.11887,0.11977 0 0 1 0.07786,-0.07904l0.83209,-0.26528a3.5994,3.62645 0 0 0 0,-0.93774l-0.83209,-0.26528a0.11887,0.11977 0 0 1 -0.07786,-0.07904a2.7578,2.77852 0 0 0 -0.61396,-1.06949a0.11887,0.11977 0 0 1 -0.02912,-0.10719l0.18841,-0.85991a3.55601,3.58273 0 0 0 -0.80357,-0.46947l-0.64725,0.59463a0.11887,0.11977 0 0 1 -0.10698,0.02815a2.74948,2.77014 0 0 0 -1.22614,0a0.11887,0.11977 0 0 1 -0.10639,-0.02815l-0.64725,-0.59463a3.55601,3.58273 0 0 0 -0.80595,0.46947l0.18841,0.85991a0.11887,0.11977 0 0 1 -0.02912,0.10719a2.75839,2.77912 0 0 0 -0.61099,1.06949a0.11887,0.11977 0 0 1 -0.07787,0.07904l-0.83208,0.26528a3.5994,3.62645 0 0 0 0,0.93774l0.83208,0.26528a0.11887,0.11977 0 0 1 0.07787,0.07904a2.75899,2.77971 0 0 0 0.61337,1.06949a0.11887,0.11977 0 0 1 0.02912,0.10719l-0.18841,0.85991zm2.17058,-1.41262a1.42645,1.43716 0 1 1 1.42645,-1.43716a1.42645,1.43716 0 0 1 -1.42645,1.43716zm0,-2.6348a1.1887,1.19764 0 1 0 1.1887,1.19763a1.1887,1.19764 0 0 0 -1.1887,-1.19763z" class="cls-2"/>
  </g>
 </g>
</svg>