<svg width="50" height="50" version="1.1" xmlns="http://www.w3.org/2000/svg" desc="Created with imagetracer.js version 0.2.1" ><path fill="rgb(0,0,0)" stroke="rgb(0,0,0)" stroke-width="1" opacity="0" d="M 0 0 L 3 0.5 L 1 1 L 0.5 3 L 0 0 Z " /><path fill="rgb(0,0,0)" stroke="rgb(0,0,0)" stroke-width="1" opacity="0" d="M 6.5 0 Q 10.8 -0.8 11.5 2 L 18 2 Q 16.8 -1.7 22 0 Q 20.8 3 24.5 2 Q 27 3.2 26 7 Q 29.7 8.3 28 2.5 L 26.5 0 L 50 0 L 50 24.5 L 49 24.5 Q 49.8 22.3 47.5 23 L 44.5 21 L 28 18 L 28 11.5 L 26 11 L 26 17.5 L 24.5 18 L 22 20.5 L 21 28.5 L 18 37.5 L 18 43.5 L 21.5 46 L 37 49.5 L 0 50 L 0.5 26 L 1 28 L 6 29 Q 7.1 26.3 4.5 27 L 2 26 L 2 22.5 Q -1.3 23.3 0 18 L 2 17.5 L 2 11 Q -1.7 12.2 0 7 Q 3.3 8.3 2 3.5 L 6.5 0 Z M 10 27 L 11 29 L 18 29 L 18 27 L 10 27 Z " /><path fill="rgb(0,0,0)" stroke="rgb(0,0,0)" stroke-width="1" opacity="0" d="M 49.5 30 L 50 50 L 44 49.5 L 46 46.5 L 49.5 30 Z " /><path fill="rgb(251,171,44)" stroke="rgb(251,171,44)" stroke-width="1" opacity="0.9764705882352941" d="M 5.5 0 L 4.5 2 L 5.5 0 Z " /><path fill="rgb(251,171,44)" stroke="rgb(251,171,44)" stroke-width="1" opacity="0.9764705882352941" d="M 24.5 1 L 28 2.5 L 25.5 3 L 24.5 1 Z " /><path fill="rgb(251,171,44)" stroke="rgb(251,171,44)" stroke-width="1" opacity="0.9764705882352941" d="M 46.5 22 L 45.5 24 L 46.5 22 Z " /><path fill="rgb(251,171,44)" stroke="rgb(251,171,44)" stroke-width="1" opacity="0.9764705882352941" d="M 5.5 27 L 4.5 29 L 3 28.5 L 5.5 27 Z " /><path fill="rgb(251,171,44)" stroke="rgb(251,171,44)" stroke-width="1" opacity="0.9764705882352941" d="M 47.5 32 L 48.5 34 L 47.5 32 Z " /><path fill="rgb(251,171,44)" stroke="rgb(251,171,44)" stroke-width="1" opacity="0.9764705882352941" d="M 44.5 38 L 46 40.5 L 45 40.5 L 44.5 38 Z " /><path fill="rgb(251,171,44)" stroke="rgb(251,171,44)" stroke-width="1" opacity="0.9764705882352941" d="M 19.5 42 L 18.5 44 L 19.5 42 Z " /><path fill="rgb(251,171,44)" stroke="rgb(251,171,44)" stroke-width="1" opacity="0.9764705882352941" d="M 34.5 47 L 33.5 49 L 34.5 47 Z " /><path fill="rgb(254,172,43)" stroke="rgb(254,172,43)" stroke-width="1" opacity="0.403921568627451" d="M 11.5 1 L 18 1.5 L 11.5 2 L 11.5 1 Z " /><path fill="rgb(254,172,43)" stroke="rgb(254,172,43)" stroke-width="1" opacity="0.403921568627451" d="M 1.5 4 L 2 6.5 L 1 6.5 L 1.5 4 Z " /><path fill="rgb(254,172,43)" stroke="rgb(254,172,43)" stroke-width="1" opacity="0.403921568627451" d="M 26.5 4 L 27 6.5 L 26 6.5 L 26.5 4 Z " /><path fill="rgb(254,172,43)" stroke="rgb(254,172,43)" stroke-width="1" opacity="0.403921568627451" d="M 1.5 11 L 2 17.5 L 1 17.5 L 1.5 11 Z " /><path fill="rgb(254,172,43)" stroke="rgb(254,172,43)" stroke-width="1" opacity="0.403921568627451" d="M 26.5 11 L 27 17.5 L 26 17.5 L 26.5 11 Z " /><path fill="rgb(139,131,119)" stroke="rgb(139,131,119)" stroke-width="1" opacity="0.996078431372549" d="M 29.5 23 L 35 26.5 L 34 28.5 L 36 32 L 34 32.5 L 36.5 34 L 40 32 L 41.5 35 L 44 34 L 45 41 Q 41.3 39.5 42 42.5 Q 44.3 43.8 41.5 45 L 39.5 44 L 36 46 L 36 43 L 32 43 L 32 41.5 L 33 39.5 L 32 37.5 Q 34.3 36.3 31.5 35 L 27 37 Q 28.1 33.7 24 35 L 24 31.5 L 22.5 29 Q 24.8 29.8 24 27.5 L 25.5 24 L 27.5 25 L 29.5 23 Z M 29 26 L 26 27 L 25 30 L 26 33 Q 25 36 31 34 L 33 31 L 32 27 L 29 26 Z M 37 35 L 34 38 L 37 42 Q 41 43 42 41 L 41 37 Q 42 33 37 35 Z " /><path fill="rgb(254,172,44)" stroke="rgb(254,172,44)" stroke-width="1" opacity="1" d="M 24.5 18 L 30.5 18 L 34.5 20 L 43.5 21 L 49 24.5 L 50 27.5 L 45.5 45 L 45 41.5 L 49 27.5 L 45.5 23 L 26.5 19 L 23 22.5 L 22 28 L 24 28.5 L 21 30.5 L 21 35.5 L 19 43 L 22.5 45 L 41.5 49 L 44 48 L 44.5 46 L 45 47.5 Q 43.6 50.6 38.5 50 L 19 45 L 18 38.5 L 22 25.5 L 22 21.5 L 24.5 18 Z " /><path fill="rgb(254,172,44)" stroke="rgb(254,172,44)" stroke-width="1" opacity="1" d="M 33.5 34 L 34 35.5 L 31 37.5 L 33.5 34 Z " /><path fill="rgb(255,173,45)" stroke="rgb(255,173,45)" stroke-width="1" opacity="1" d="M 3.5 0 L 5 0.5 L 2 2 L 0.5 7 L 0 4.5 L 1 1 L 3.5 0 Z " /><path fill="rgb(255,173,45)" stroke="rgb(255,173,45)" stroke-width="1" opacity="1" d="M 11.5 0 L 18 0.5 L 11.5 1 L 11.5 0 Z " /><path fill="rgb(255,173,45)" stroke="rgb(255,173,45)" stroke-width="1" opacity="1" d="M 22.5 0 Q 27.5 -0.5 28 3.5 L 27.5 7 L 24.5 1 Q 21.5 1.5 22.5 0 Z " /><path fill="rgb(255,173,45)" stroke="rgb(255,173,45)" stroke-width="1" opacity="1" d="M 0.5 11 L 1 17.5 L 0 17.5 L 0.5 11 Z " /><path fill="rgb(255,173,45)" stroke="rgb(255,173,45)" stroke-width="1" opacity="1" d="M 27.5 11 L 28 17.5 L 27 17.5 L 27.5 11 Z " /><path fill="rgb(255,173,45)" stroke="rgb(255,173,45)" stroke-width="1" opacity="1" d="M 26.5 19 L 33.5 20 L 40.5 23 L 44.5 23 L 48 25.5 L 49 27.5 L 45.5 39 Q 43 37.8 44 34 L 41 34 Q 42.3 31 38.5 32 L 35.5 33 L 36 31.5 L 34 27.5 Q 36.3 26.2 33.5 25 Q 32.3 27.2 31 24.5 Q 31.8 22.3 29.5 23 L 26.5 25 Q 25.3 22.7 24 25.5 Q 25 29.3 22 28 L 23 22.5 L 26.5 19 Z " /><path fill="rgb(255,173,45)" stroke="rgb(255,173,45)" stroke-width="1" opacity="1" d="M 0.5 22 L 3.5 27 L 5 27.5 L 2.5 28 Q -1.3 26.7 0.5 22 Z " /><path fill="rgb(255,173,45)" stroke="rgb(255,173,45)" stroke-width="1" opacity="1" d="M 11 27 L 17.5 27 L 18 29 L 11.5 29 L 11 27 Z " /><path fill="rgb(255,173,45)" stroke="rgb(255,173,45)" stroke-width="1" opacity="1" d="M 26 27 Q 30.6 25.8 32 28.5 Q 33 33 30.5 34 Q 26.8 34.8 26 32.5 L 25 29.5 L 26 27 Z " /><path fill="rgb(255,173,45)" stroke="rgb(255,173,45)" stroke-width="1" opacity="1" d="M 21 30 L 24 31.5 L 23 35 L 28.5 37 L 31.5 36 L 31 37.5 Q 30.3 39.8 32.5 39 L 32 40.5 L 32 43 L 36 43 Q 34.5 46.8 37.5 46 L 40.5 44 L 43 45 L 42 42.5 L 45 41 L 44 48 L 40.5 49 L 31.5 46 L 22.5 45 L 19 41.5 Q 22 37.3 21 30 Z " /><path fill="rgb(255,173,45)" stroke="rgb(255,173,45)" stroke-width="1" opacity="1" d="M 37.5 35 Q 41.5 34.5 42 37.5 Q 43.5 41.9 40.5 41 L 36.5 42 Q 34.3 41.3 35 37.5 L 37.5 35 Z " /></svg>