<?xml version="1.0" encoding="UTF-8"?>
<svg xmlns="http://www.w3.org/2000/svg" xmlns:xlink="http://www.w3.org/1999/xlink" width="16px" height="16px" viewBox="0 0 16 16" version="1.1">
<g id="surface1">
<path style=" stroke:none;fill-rule:nonzero;fill:rgb(83.137256%,0%,0%);fill-opacity:1;" d="M 4.550781 1.769531 C 4.453125 1.769531 4.351562 1.773438 4.25 1.785156 C 3.433594 1.855469 2.523438 2.175781 1.828125 2.835938 C 1.136719 3.496094 0.660156 4.492188 0.609375 5.527344 C 0.558594 6.5625 0.925781 7.636719 2.175781 9.011719 C 3.425781 10.390625 5.550781 12.070312 6.660156 13.007812 C 7.773438 13.949219 7.867188 14.148438 7.957031 14.214844 C 7.972656 14.226562 7.984375 14.230469 8 14.230469 C 8.015625 14.230469 8.027344 14.226562 8.042969 14.214844 C 8.132812 14.148438 8.226562 13.949219 9.339844 13.007812 C 10.449219 12.070312 12.574219 10.390625 13.824219 9.011719 C 15.074219 7.636719 15.441406 6.5625 15.390625 5.527344 C 15.339844 4.492188 14.863281 3.496094 14.171875 2.835938 C 13.476562 2.175781 12.566406 1.855469 11.75 1.785156 C 10.933594 1.710938 10.210938 1.894531 9.683594 2.1875 C 9.15625 2.480469 8.824219 2.890625 8.546875 3.316406 C 8.335938 3.636719 8.152344 3.96875 8 4.371094 C 7.847656 3.96875 7.664062 3.636719 7.453125 3.316406 C 7.175781 2.890625 6.84375 2.480469 6.316406 2.1875 C 5.855469 1.929688 5.246094 1.757812 4.550781 1.769531 Z M 4.550781 1.769531 "/>
</g>
</svg>
